<?xml version="1.0" encoding="utf-8"?>
<!-- Generator: $$$/GeneralStr/196=Adobe Illustrator 27.6.0, SVG Export Plug-In . SVG Version: 6.00 Build 0)  -->
<svg version="1.1" id="katman_1" xmlns="http://www.w3.org/2000/svg" xmlns:xlink="http://www.w3.org/1999/xlink" x="0px" y="0px"
	 viewBox="0 0 882.7 703.4" style="enable-background:new 0 0 882.7 703.4;" xml:space="preserve">
<style type="text/css">
	.st0{clip-path:url(#SVGID_00000132771334007324607800000003799519369173698706_);}
	.st1{fill:#C28F2B;}
</style>
<g>
	<g>
		<g>
			<defs>
				<rect id="SVGID_1_" x="113.9" y="1.6" width="655.7" height="699.5"/>
			</defs>
			<clipPath id="SVGID_00000005986218287109638030000015272497487359577760_">
				<use xlink:href="#SVGID_1_"  style="overflow:visible;"/>
			</clipPath>
			<g style="clip-path:url(#SVGID_00000005986218287109638030000015272497487359577760_);">
				<path class="st1" d="M153.3,214.6c-25.1,45.6-39.5,97.9-39.5,153.4s14.3,107.9,39.5,153.4V214.6z"/>
				<path class="st1" d="M441.7,45.7c-26.6,0-52.4,3.3-77.1,9.1v50.7c24.5-6.9,50.4-10.7,77.1-10.7c153.4,0,277.9,122,277.9,272.4
					c0,67.8-25.3,129.7-67.1,177.4l-7.9,27.8l-17.5,61.6c86.1-58,142.6-155.4,142.6-265.8C769.5,190,622.8,45.7,441.7,45.7z"/>
				<path class="st1" d="M364.6,535.4H616h5.5c42.5-43.8,68.8-103,68.8-168.1c0-134.5-111.3-243.6-248.6-243.6
					c-27,0-52.9,4.3-77.1,12L364.6,535.4L364.6,535.4z"/>
				<path class="st1" d="M334.8,1.6h-187L183,73.7V629l-35.3,72H577l39-136.5H334.8V1.6z"/>
			</g>
		</g>
	</g>
</g>
</svg>
